<svg xmlns="http://www.w3.org/2000/svg" width="750.922" height="643.037" viewBox="0 0 750.922 643.037">
  <g id="그룹_41" data-name="그룹 41" transform="translate(0)" opacity="0.3">
    <path id="패스_6" data-name="패스 6" d="M1913.351,1901.473a227.27,227.27,0,0,0,192.565-347.835h108.428a323.689,323.689,0,0,1,23.169,120.654c0,179.178-144.985,324.163-324.163,324.163a323.911,323.911,0,0,1-111.836-19.774V1872.118A226.3,226.3,0,0,0,1913.351,1901.473Z" transform="translate(-1801.514 -1355.418)" fill="#25e5e5"/>
    <path id="패스_7" data-name="패스 7" d="M1923.063,1503a323.918,323.918,0,0,1,285.13,169.7H2089.71a227.46,227.46,0,0,0-278.483-43.365V1522.773A324.01,324.01,0,0,1,1923.063,1503Z" transform="translate(-1811.227 -1503)" fill="#25e5e5"/>
    <path id="패스_8" data-name="패스 8" d="M1834.258,1545.225h248.8a227.859,227.859,0,0,1,25.918,33.812H1834.258Z" transform="translate(-1804.578 -1376.985)" fill="#fa9b95"/>
    <path id="패스_9" data-name="패스 9" d="M2081.754,1545.225v33.812H1737.481a322.436,322.436,0,0,0-15.863-33.812Z" transform="translate(-1330.832 -1376.985)" fill="#fa9b95"/>
    <path id="패스_10" data-name="패스 10" d="M1807.28,1545.225h118.483a322.433,322.433,0,0,1,15.863,33.812H1833.2A227.889,227.889,0,0,0,1807.28,1545.225Z" transform="translate(-1531.56 -1376.985)" fill="#fa9b95"/>
  </g>
</svg>
