<svg xmlns="http://www.w3.org/2000/svg" width="549.813" height="446.817" viewBox="0 0 549.813 446.817">
  <g id="그룹_37" data-name="그룹 37" transform="translate(-1440.801 -1791.711)" opacity="0.3">
    <g id="그룹_5" data-name="그룹 5" transform="translate(1440.801 1999.339)">
      <path id="패스_11" data-name="패스 11" d="M1450.17,1871.873l86.213,38.469a16.653,16.653,0,0,0,13.489.007l79.51-35.462,79.521,35.455a16.643,16.643,0,0,0,13.485.007l79.51-35.462,79.554,35.455a16.65,16.65,0,0,0,13.488.007l86.316-38.476a15.388,15.388,0,0,0,7.888-20.646,16.226,16.226,0,0,0-14.646-9.067,16.418,16.418,0,0,0-6.746,1.435l-79.559,35.458-79.553-35.458a16.643,16.643,0,0,0-13.485-.008l-79.51,35.466-79.518-35.458a16.651,16.651,0,0,0-13.489-.008l-79.51,35.462-79.463-35.454a16.455,16.455,0,0,0-6.747-1.435,16.2,16.2,0,0,0-14.638,9.064,14.936,14.936,0,0,0-1.481,6.507A15.593,15.593,0,0,0,1450.17,1871.873Zm6.75-20.556.1.008c-.079,0-.155,0-.229,0C1456.837,1851.326,1456.88,1851.317,1456.92,1851.317Zm-6.026,3.733h0v0h0c-.1.217-.193.435-.273.656C1450.7,1855.486,1450.79,1855.268,1450.893,1855.051Z" transform="translate(-1440.801 -1842.159)" fill="#25e5e5"/>
      <path id="패스_12" data-name="패스 12" d="M1450.17,1891.674l86.213,38.468a16.65,16.65,0,0,0,13.489.008l79.51-35.461,79.521,35.454a16.641,16.641,0,0,0,13.485.008l79.51-35.461,79.554,35.454a16.648,16.648,0,0,0,13.488.008l86.316-38.476a15.388,15.388,0,0,0,7.888-20.646,16.227,16.227,0,0,0-14.646-9.068,16.418,16.418,0,0,0-6.746,1.436l-79.559,35.457-79.553-35.457a16.636,16.636,0,0,0-13.485-.008l-79.51,35.465-79.518-35.457a16.644,16.644,0,0,0-13.489-.008l-79.51,35.461-79.463-35.453a16.463,16.463,0,0,0-6.747-1.436,16.2,16.2,0,0,0-14.638,9.064,14.94,14.94,0,0,0-1.481,6.507A15.594,15.594,0,0,0,1450.17,1891.674Zm6.75-20.555.1.008c-.079,0-.155,0-.229,0C1456.837,1871.126,1456.88,1871.118,1456.92,1871.118Zm-6.026,3.733h0v0h0c-.1.218-.193.435-.273.656C1450.7,1875.286,1450.79,1875.069,1450.893,1874.851Z" transform="translate(-1440.801 -1786.396)" fill="#25e5e5"/>
      <path id="패스_13" data-name="패스 13" d="M1450.17,1911.474l86.213,38.468a16.647,16.647,0,0,0,13.489.007l79.51-35.461,79.521,35.454a16.638,16.638,0,0,0,13.485.007l79.51-35.461,79.554,35.454a16.645,16.645,0,0,0,13.488.007l86.316-38.476a15.389,15.389,0,0,0,7.888-20.647,16.225,16.225,0,0,0-14.646-9.067,16.432,16.432,0,0,0-6.746,1.434l-79.559,35.458-79.553-35.458a16.649,16.649,0,0,0-13.485-.007l-79.51,35.465-79.518-35.458a16.657,16.657,0,0,0-13.489-.007l-79.51,35.462-79.463-35.455a16.478,16.478,0,0,0-6.747-1.434,16.2,16.2,0,0,0-14.638,9.064,14.934,14.934,0,0,0-1.481,6.506A15.6,15.6,0,0,0,1450.17,1911.474Zm6.75-20.556.1.007a2.225,2.225,0,0,0-.229,0C1456.837,1890.925,1456.88,1890.918,1456.92,1890.918Zm-6.026,3.733h0v0h0c-.1.218-.193.434-.273.655C1450.7,1895.085,1450.79,1894.869,1450.893,1894.651Z" transform="translate(-1440.801 -1730.632)" fill="#25e5e5"/>
    </g>
    <rect id="사각형_6" data-name="사각형 6" width="21.931" height="446.817" rx="3" transform="translate(1904.852 1791.711)" fill="#fff200"/>
  </g>
</svg>
