<svg xmlns="http://www.w3.org/2000/svg" width="188.382" height="161.317" viewBox="0 0 188.382 161.317">
  <g id="그룹_4" data-name="그룹 4" transform="translate(-1721.618 -1503)">
    <path id="패스_6" data-name="패스 6" d="M1882.173,1640.186a56.549,56.549,0,0,1-47.914-86.548H1807.28A80.729,80.729,0,0,0,1910,1659.4v-26.515A56.307,56.307,0,0,1,1882.173,1640.186Z" fill="#25e5e5"/>
    <path id="패스_7" data-name="패스 7" d="M1882.173,1503a80.6,80.6,0,0,0-70.946,42.225h29.481a56.6,56.6,0,0,1,69.292-10.79V1507.92A80.618,80.618,0,0,0,1882.173,1503Z" fill="#25e5e5"/>
    <path id="패스_8" data-name="패스 8" d="M1902.615,1545.225h-61.907a56.709,56.709,0,0,0-6.449,8.413h68.356Z" fill="#fa9b95"/>
    <path id="패스_9" data-name="패스 9" d="M1721.618,1545.225v8.413h85.662a80.236,80.236,0,0,1,3.947-8.413Z" fill="#fa9b95"/>
    <path id="패스_10" data-name="패스 10" d="M1840.708,1545.225h-29.481a80.236,80.236,0,0,0-3.947,8.413h26.979A56.709,56.709,0,0,1,1840.708,1545.225Z" fill="#fa9b95"/>
  </g>
</svg>
