<svg xmlns="http://www.w3.org/2000/svg" width="139.199" height="113.123" viewBox="0 0 139.199 113.123">
  <g id="그룹_6" data-name="그룹 6" transform="translate(-1440.801 -1791.711)">
    <g id="그룹_5" data-name="그룹 5">
      <path id="패스_11" data-name="패스 11" d="M1443.173,1849.945l21.827,10.08a4.085,4.085,0,0,0,3.415,0l20.13-9.292,20.133,9.29a4.082,4.082,0,0,0,3.414,0l20.13-9.292,20.141,9.29a4.084,4.084,0,0,0,3.415,0l21.853-10.082a4.081,4.081,0,0,0-1.711-7.786,4.037,4.037,0,0,0-1.708.376l-20.142,9.291-20.141-9.291a4.083,4.083,0,0,0-3.414,0l-20.13,9.293-20.132-9.291a4.085,4.085,0,0,0-3.415,0l-20.13,9.292-20.118-9.29a4.049,4.049,0,0,0-1.708-.376,4.091,4.091,0,0,0-3.706,2.375,4.027,4.027,0,0,0-.375,1.7A4.092,4.092,0,0,0,1443.173,1849.945Zm1.709-5.386.026,0a.57.57,0,0,0-.058,0Zm-1.526.978h0c-.026.057-.049.114-.069.172C1443.307,1845.651,1443.33,1845.594,1443.356,1845.537Z" fill="#25e5e5"/>
      <path id="패스_12" data-name="패스 12" d="M1443.173,1869.745l21.827,10.08a4.085,4.085,0,0,0,3.415,0l20.13-9.292,20.133,9.29a4.083,4.083,0,0,0,3.414,0l20.13-9.292,20.141,9.29a4.085,4.085,0,0,0,3.415,0l21.853-10.082a4.081,4.081,0,0,0-1.711-7.786,4.037,4.037,0,0,0-1.708.376l-20.142,9.291-20.141-9.291a4.082,4.082,0,0,0-3.414,0l-20.13,9.293-20.132-9.291a4.085,4.085,0,0,0-3.415,0l-20.13,9.292-20.118-9.29a4.082,4.082,0,0,0-5.789,3.7A4.092,4.092,0,0,0,1443.173,1869.745Zm1.709-5.386.026,0a.536.536,0,0,0-.058,0Zm-1.526.978h0c-.026.057-.049.114-.069.172C1443.307,1865.451,1443.33,1865.394,1443.356,1865.337Z" fill="#25e5e5"/>
      <path id="패스_13" data-name="패스 13" d="M1443.173,1889.545l21.827,10.08a4.085,4.085,0,0,0,3.415,0l20.13-9.292,20.133,9.29a4.082,4.082,0,0,0,3.414,0l20.13-9.292,20.141,9.29a4.084,4.084,0,0,0,3.415,0l21.853-10.082a4.081,4.081,0,0,0-1.711-7.786,4.037,4.037,0,0,0-1.708.376l-20.142,9.291-20.141-9.291a4.082,4.082,0,0,0-3.414,0l-20.13,9.293-20.132-9.291a4.085,4.085,0,0,0-3.415,0l-20.13,9.292-20.118-9.29a4.049,4.049,0,0,0-1.708-.376,4.091,4.091,0,0,0-3.706,2.375,4.027,4.027,0,0,0-.375,1.7A4.092,4.092,0,0,0,1443.173,1889.545Zm1.709-5.386.026,0a.57.57,0,0,0-.058,0Zm-1.526.978h0c-.026.057-.049.114-.069.172C1443.307,1885.251,1443.33,1885.194,1443.356,1885.137Z" fill="#25e5e5"/>
    </g>
    <rect id="사각형_6" data-name="사각형 6" width="5.747" height="113.123" rx="2.873" transform="translate(1557.527 1791.711)" fill="#fff200"/>
  </g>
</svg>
