<?xml version="1.0" encoding="utf-8"?>
<!-- Generator: Adobe Illustrator 21.0.0, SVG Export Plug-In . SVG Version: 6.00 Build 0)  -->
<svg version="1.1" id="Layer_1" xmlns="http://www.w3.org/2000/svg" xmlns:xlink="http://www.w3.org/1999/xlink" x="0px" y="0px"
	 viewBox="0 0 300 240.3" style="enable-background:new 0 0 300 240.3;" xml:space="preserve">
<style type="text/css">
	.st0{fill:#25E5E5;}
	.st1{fill:#FA9B95;}
</style>
<g>
	<path class="st0" d="M181.5,0.3c9,3,13.5,10.5,13.5,19.5l-57,210c-3,6-9,10.5-15,10.5h-4.5c-9-3-13.5-10.5-12-19.5l57-210
		C165,3.3,174-1.2,181.5,0.3L181.5,0.3z"/>
	<path class="st1" d="M235.5,49.8l60,60c6,6,6,15,0,21l-60,60c-3,3-7.5,4.5-10.5,4.5c-3,0-7.5-1.5-10.5-4.5c-6-6-6-15,0-21
		l49.5-49.5l-49.5-49.5c-6-6-6-15,0-21C220.5,43.8,229.5,43.8,235.5,49.8L235.5,49.8z"/>
	<path class="st1" d="M85.5,49.8c6,6,6,15,0,21L36,120.3l49.5,49.5c6,6,6,15,0,21c-3,3-6,4.5-10.5,4.5c-4.5,0-7.5-1.5-10.5-4.5
		l-60-60c-6-6-6-15,0-21l60-60C70.5,43.8,79.5,43.8,85.5,49.8L85.5,49.8z"/>
</g>
</svg>
